if (_typeface_js && _typeface_js.loadFace) _typeface_js.loadFace({"glyphs":{"S":{"x_min":130,"x_max":911.4375,"ha":1042,"o":"m 911 260 l 781 260 l 781 130 l 261 130 l 261 260 l 130 260 l 130 391 l 390 391 l 390 260 l 651 260 l 651 521 l 261 521 l 261 651 l 130 651 l 130 912 l 261 912 l 261 1042 l 781 1042 l 781 912 l 911 912 l 911 781 l 651 781 l 651 911 l 390 911 l 390 651 l 781 651 l 781 521 l 911 521 l 911 260 "},"/":{"x_min":130.21875,"x_max":1041.75,"ha":1042,"o":"m 1041 781 l 911 781 l 911 651 l 781 651 l 781 521 l 651 521 l 651 390 l 520 390 l 520 260 l 390 260 l 390 130 l 130 130 l 130 260 l 260 260 l 260 390 l 390 390 l 390 521 l 520 521 l 520 651 l 651 651 l 651 781 l 781 781 l 781 912 l 1041 912 l 1041 781 "},"K":{"x_min":130,"x_max":911.4375,"ha":1042,"o":"m 911 130 l 651 130 l 651 260 l 521 260 l 521 390 l 390 390 l 390 130 l 130 130 l 130 1042 l 390 1042 l 390 781 l 521 781 l 521 911 l 651 911 l 651 1042 l 911 1042 l 911 911 l 781 911 l 781 781 l 651 781 l 651 651 l 521 651 l 521 520 l 651 520 l 651 390 l 781 390 l 781 260 l 911 260 l 911 130 "},"7":{"x_min":130.5625,"x_max":911.4375,"ha":1042,"o":"m 911 781 l 781 781 l 781 651 l 651 651 l 651 130 l 391 130 l 391 651 l 521 651 l 521 781 l 651 781 l 651 911 l 391 911 l 391 781 l 130 781 l 130 1042 l 911 1042 l 911 781 "},"d":{"x_min":130,"x_max":911.4375,"ha":1042,"o":"m 911 130 l 260 130 l 260 260 l 130 260 l 130 521 l 260 521 l 260 651 l 651 651 l 651 912 l 911 912 l 911 130 m 651 260 l 651 521 l 390 521 l 390 260 l 651 260 "},",":{"x_min":260.78125,"x_max":651.4375,"ha":1042,"o":"m 651 130 l 521 130 l 521 0 l 260 0 l 260 130 l 391 130 l 391 390 l 651 390 l 651 130 "},"Y":{"x_min":130,"x_max":911.4375,"ha":1042,"o":"m 911 651 l 781 651 l 781 521 l 651 521 l 651 130 l 391 130 l 391 521 l 260 521 l 260 651 l 130 651 l 130 1042 l 390 1042 l 390 651 l 651 651 l 651 1042 l 911 1042 l 911 651 "},"E":{"x_min":130,"x_max":910.4375,"ha":1042,"o":"m 910 130 l 130 130 l 130 1042 l 910 1042 l 910 911 l 390 911 l 390 651 l 650 651 l 650 520 l 390 520 l 390 260 l 910 260 l 910 130 "},"y":{"x_min":130,"x_max":911.4375,"ha":1042,"o":"m 911 259 l 781 259 l 781 130 l 651 130 l 651 0 l 130 0 l 130 130 l 520 130 l 520 259 l 260 259 l 260 390 l 130 390 l 130 781 l 390 781 l 390 390 l 651 390 l 651 781 l 911 781 l 911 259 "},"\"":{"x_min":130,"x_max":911.4375,"ha":1042,"o":"m 911 651 l 651 651 l 651 1042 l 911 1042 l 911 651 m 390 651 l 130 651 l 130 1042 l 390 1042 l 390 651 "},"g":{"x_min":130,"x_max":911.4375,"ha":1042,"o":"m 911 130 l 781 130 l 781 0 l 130 0 l 130 130 l 651 130 l 651 259 l 260 259 l 260 390 l 130 390 l 130 650 l 260 650 l 260 781 l 911 781 l 911 130 m 651 390 l 651 650 l 390 650 l 390 390 l 651 390 "},"e":{"x_min":130,"x_max":910.4375,"ha":1042,"o":"m 910 390 l 390 390 l 390 260 l 781 260 l 781 130 l 260 130 l 260 260 l 130 260 l 130 650 l 260 650 l 260 781 l 780 781 l 780 650 l 910 650 l 910 390 m 650 521 l 650 650 l 390 650 l 390 521 l 650 521 "},"J":{"x_min":130.34375,"x_max":911.4375,"ha":1042,"o":"m 911 911 l 781 911 l 781 260 l 651 260 l 651 130 l 260 130 l 260 260 l 130 260 l 130 391 l 390 391 l 390 260 l 521 260 l 521 911 l 391 911 l 391 1042 l 911 1042 l 911 911 "},"|":{"x_min":391,"x_max":651.4375,"ha":1042,"o":"m 651 0 l 391 0 l 391 1042 l 651 1042 l 651 0 "},"^":{"x_min":131,"x_max":911.4375,"ha":1042,"o":"m 911 520 l 651 520 l 651 0 l 391 0 l 391 520 l 131 520 l 131 650 l 261 650 l 261 781 l 391 781 l 391 912 l 651 912 l 651 781 l 781 781 l 781 650 l 911 650 l 911 520 "},"q":{"x_min":130,"x_max":911.4375,"ha":1042,"o":"m 911 0 l 651 0 l 651 260 l 260 260 l 260 390 l 130 390 l 130 650 l 260 650 l 260 781 l 911 781 l 911 0 m 651 390 l 651 650 l 390 650 l 390 390 l 651 390 "},"b":{"x_min":130,"x_max":911.4375,"ha":1042,"o":"m 911 260 l 781 260 l 781 130 l 130 130 l 130 912 l 390 912 l 390 651 l 781 651 l 781 521 l 911 521 l 911 260 m 651 260 l 651 521 l 390 521 l 390 260 l 651 260 "},"D":{"x_min":130,"x_max":911.4375,"ha":1042,"o":"m 911 390 l 781 390 l 781 260 l 651 260 l 651 130 l 130 130 l 130 1042 l 651 1042 l 651 911 l 781 911 l 781 781 l 911 781 l 911 390 m 651 390 l 651 781 l 521 781 l 521 911 l 390 911 l 390 260 l 521 260 l 521 390 l 651 390 "},"∙":{"x_min":391,"x_max":651.4375,"ha":1042,"o":"m 651 391 l 391 391 l 391 651 l 651 651 l 651 391 "},"z":{"x_min":130.21875,"x_max":911.53125,"ha":1042,"o":"m 911 130 l 130 130 l 130 260 l 260 260 l 260 390 l 390 390 l 390 520 l 520 520 l 520 650 l 130 650 l 130 781 l 911 781 l 911 650 l 781 650 l 781 520 l 651 520 l 651 390 l 520 390 l 520 260 l 911 260 l 911 130 "},"w":{"x_min":130,"x_max":1041.4375,"ha":1042,"o":"m 1041 390 l 911 390 l 911 130 l 651 130 l 651 260 l 521 260 l 521 130 l 260 130 l 260 390 l 130 390 l 130 781 l 390 781 l 390 520 l 521 520 l 521 650 l 651 650 l 651 520 l 781 520 l 781 781 l 1041 781 l 1041 390 "},"$":{"x_min":131,"x_max":911.4375,"ha":1042,"o":"m 911 390 l 781 390 l 781 260 l 651 260 l 651 130 l 391 130 l 391 260 l 131 260 l 131 390 l 651 390 l 651 521 l 261 521 l 261 650 l 131 650 l 131 781 l 261 781 l 261 912 l 391 912 l 391 1042 l 651 1042 l 651 912 l 911 912 l 911 781 l 391 781 l 391 651 l 781 651 l 781 521 l 911 521 l 911 390 "},"™":{"x_min":0,"x_max":1042.21875,"ha":1042,"o":"m 1042 521 l 912 521 l 912 781 l 781 781 l 781 521 l 651 521 l 651 781 l 521 781 l 521 521 l 391 521 l 391 1042 l 521 1042 l 521 912 l 651 912 l 651 781 l 781 781 l 781 912 l 912 912 l 912 1042 l 1042 1042 l 1042 521 m 391 911 l 260 911 l 260 521 l 130 521 l 130 911 l 0 911 l 0 1042 l 391 1042 l 391 911 "},"\\":{"x_min":130.21875,"x_max":1041.75,"ha":1042,"o":"m 1041 130 l 781 130 l 781 260 l 651 260 l 651 390 l 520 390 l 520 521 l 390 521 l 390 651 l 260 651 l 260 781 l 130 781 l 130 912 l 390 912 l 390 781 l 520 781 l 520 651 l 651 651 l 651 521 l 781 521 l 781 390 l 911 390 l 911 260 l 1041 260 l 1041 130 "},"~":{"x_min":260,"x_max":911.21875,"ha":1042,"o":"m 911 521 l 781 521 l 781 391 l 520 391 l 520 521 l 390 521 l 390 391 l 260 391 l 260 521 l 390 521 l 390 651 l 650 651 l 650 521 l 781 521 l 781 651 l 911 651 l 911 521 "},"-":{"x_min":130.21875,"x_max":911.53125,"ha":1042,"o":"m 911 521 l 130 521 l 130 651 l 911 651 l 911 521 "},"Q":{"x_min":130,"x_max":911.4375,"ha":1042,"o":"m 911 130 l 520 130 l 520 260 l 260 260 l 260 391 l 130 391 l 130 911 l 260 911 l 260 1042 l 781 1042 l 781 911 l 911 911 l 911 391 l 781 391 l 781 260 l 911 260 l 911 130 m 651 391 l 651 911 l 390 911 l 390 391 l 651 391 "},"M":{"x_min":130,"x_max":1041.4375,"ha":1042,"o":"m 1041 130 l 781 130 l 781 651 l 651 651 l 651 521 l 521 521 l 521 651 l 390 651 l 390 130 l 130 130 l 130 1042 l 390 1042 l 390 912 l 521 912 l 521 781 l 651 781 l 651 912 l 781 912 l 781 1042 l 1041 1042 l 1041 130 "},"C":{"x_min":130,"x_max":911.4375,"ha":1042,"o":"m 911 260 l 781 260 l 781 130 l 260 130 l 260 260 l 130 260 l 130 912 l 260 912 l 260 1042 l 781 1042 l 781 912 l 911 912 l 911 781 l 651 781 l 651 911 l 390 911 l 390 260 l 651 260 l 651 391 l 911 391 l 911 260 "},"[":{"x_min":260,"x_max":780.4375,"ha":1042,"o":"m 780 130 l 260 130 l 260 1042 l 780 1042 l 780 911 l 520 911 l 520 260 l 780 260 l 780 130 "},"L":{"x_min":130,"x_max":910.4375,"ha":1042,"o":"m 910 130 l 130 130 l 130 1042 l 390 1042 l 390 260 l 910 260 l 910 130 "},"!":{"x_min":391,"x_max":651.4375,"ha":1042,"o":"m 651 520 l 391 520 l 391 1042 l 651 1042 l 651 520 m 651 130 l 391 130 l 391 260 l 651 260 l 651 130 "}," ":{"x_min":0,"x_max":0,"ha":1042},"{":{"x_min":130,"x_max":780.65625,"ha":1042,"o":"m 780 130 l 390 130 l 390 260 l 260 260 l 260 520 l 130 520 l 130 651 l 260 651 l 260 911 l 390 911 l 390 1042 l 780 1042 l 780 911 l 520 911 l 520 260 l 780 260 l 780 130 "},"X":{"x_min":130,"x_max":911.4375,"ha":1042,"o":"m 911 130 l 651 130 l 651 390 l 390 390 l 390 130 l 130 130 l 130 390 l 260 390 l 260 520 l 390 520 l 390 651 l 260 651 l 260 781 l 130 781 l 130 1042 l 390 1042 l 390 781 l 651 781 l 651 1042 l 911 1042 l 911 781 l 781 781 l 781 651 l 651 651 l 651 520 l 781 520 l 781 390 l 911 390 l 911 130 "},"P":{"x_min":130,"x_max":911.4375,"ha":1042,"o":"m 911 651 l 781 651 l 781 521 l 390 521 l 390 130 l 130 130 l 130 1042 l 781 1042 l 781 911 l 911 911 l 911 651 m 651 651 l 651 911 l 390 911 l 390 651 l 651 651 "},"%":{"x_min":130,"x_max":911.4375,"ha":1042,"o":"m 390 781 l 130 781 l 130 1042 l 390 1042 l 390 781 m 911 781 l 781 781 l 781 651 l 651 651 l 651 520 l 520 520 l 520 390 l 390 390 l 390 260 l 260 260 l 260 130 l 130 130 l 130 390 l 260 390 l 260 520 l 390 520 l 390 651 l 520 651 l 520 781 l 651 781 l 651 911 l 781 911 l 781 1042 l 911 1042 l 911 781 m 911 130 l 651 130 l 651 390 l 911 390 l 911 130 "},"#":{"x_min":0,"x_max":1041.4375,"ha":1042,"o":"m 1041 391 l 911 391 l 911 130 l 651 130 l 651 391 l 390 391 l 390 130 l 130 130 l 130 391 l 0 391 l 0 521 l 130 521 l 130 650 l 0 650 l 0 781 l 130 781 l 130 1042 l 390 1042 l 390 781 l 651 781 l 651 1042 l 911 1042 l 911 781 l 1041 781 l 1041 650 l 911 650 l 911 521 l 1041 521 l 1041 391 m 651 521 l 651 650 l 390 650 l 390 521 l 651 521 "},"_":{"x_min":0,"x_max":1041.75,"ha":1042,"o":"m 1041 0 l 0 0 l 0 130 l 1041 130 l 1041 0 "},"+":{"x_min":131,"x_max":911.4375,"ha":1042,"o":"m 911 521 l 651 521 l 651 261 l 391 261 l 391 521 l 131 521 l 131 651 l 391 651 l 391 912 l 651 912 l 651 651 l 911 651 l 911 521 "},")":{"x_min":260,"x_max":781.4375,"ha":1042,"o":"m 781 390 l 651 390 l 651 260 l 520 260 l 520 130 l 260 130 l 260 260 l 391 260 l 391 390 l 521 390 l 521 781 l 391 781 l 391 911 l 260 911 l 260 1042 l 520 1042 l 520 911 l 651 911 l 651 781 l 781 781 l 781 390 "},"'":{"x_min":390.65625,"x_max":911.53125,"ha":1042,"o":"m 911 911 l 781 911 l 781 781 l 651 781 l 651 650 l 390 650 l 390 781 l 520 781 l 520 911 l 651 911 l 651 1042 l 911 1042 l 911 911 "},"}":{"x_min":261,"x_max":911.4375,"ha":1042,"o":"m 911 520 l 781 520 l 781 260 l 651 260 l 651 130 l 261 130 l 261 260 l 521 260 l 521 911 l 261 911 l 261 1042 l 651 1042 l 651 911 l 781 911 l 781 651 l 911 651 l 911 520 "},"a":{"x_min":130.78125,"x_max":911.4375,"ha":1042,"o":"m 911 130 l 261 130 l 261 259 l 130 259 l 130 390 l 261 390 l 261 521 l 651 521 l 651 650 l 261 650 l 261 781 l 781 781 l 781 650 l 911 650 l 911 130 m 651 260 l 651 390 l 390 390 l 390 260 l 651 260 "},"T":{"x_min":131,"x_max":911.4375,"ha":1042,"o":"m 911 911 l 651 911 l 651 130 l 391 130 l 391 911 l 131 911 l 131 1042 l 911 1042 l 911 911 "},"=":{"x_min":130.21875,"x_max":911.53125,"ha":1042,"o":"m 911 650 l 130 650 l 130 781 l 911 781 l 911 650 m 911 391 l 130 391 l 130 521 l 911 521 l 911 391 "},"N":{"x_min":130,"x_max":911.4375,"ha":1042,"o":"m 911 130 l 651 130 l 651 390 l 520 390 l 520 520 l 390 520 l 390 130 l 130 130 l 130 1042 l 390 1042 l 390 911 l 520 911 l 520 781 l 651 781 l 651 1042 l 911 1042 l 911 130 "},"2":{"x_min":130,"x_max":911.4375,"ha":1042,"o":"m 911 130 l 130 130 l 130 390 l 260 390 l 260 521 l 520 521 l 520 651 l 651 651 l 651 911 l 390 911 l 390 781 l 130 781 l 130 912 l 260 912 l 260 1042 l 781 1042 l 781 912 l 911 912 l 911 651 l 781 651 l 781 520 l 520 520 l 520 390 l 390 390 l 390 260 l 911 260 l 911 130 "},"j":{"x_min":260.34375,"x_max":911.4375,"ha":1042,"o":"m 911 781 l 651 781 l 651 912 l 911 912 l 911 781 m 911 130 l 781 130 l 781 0 l 260 0 l 260 130 l 651 130 l 651 650 l 911 650 l 911 130 "},"Z":{"x_min":130.21875,"x_max":911.53125,"ha":1042,"o":"m 911 130 l 130 130 l 130 390 l 260 390 l 260 520 l 390 520 l 390 651 l 520 651 l 520 781 l 651 781 l 651 911 l 130 911 l 130 1042 l 911 1042 l 911 781 l 781 781 l 781 651 l 651 651 l 651 520 l 520 520 l 520 390 l 390 390 l 390 260 l 911 260 l 911 130 "},"u":{"x_min":130,"x_max":911.4375,"ha":1042,"o":"m 911 130 l 260 130 l 260 260 l 130 260 l 130 781 l 390 781 l 390 260 l 651 260 l 651 781 l 911 781 l 911 130 "},"1":{"x_min":131,"x_max":911.4375,"ha":1042,"o":"m 911 130 l 131 130 l 131 260 l 391 260 l 391 650 l 261 650 l 261 781 l 391 781 l 391 1042 l 651 1042 l 651 260 l 911 260 l 911 130 "},"k":{"x_min":130,"x_max":911.65625,"ha":1042,"o":"m 911 130 l 651 130 l 651 260 l 521 260 l 521 390 l 390 390 l 390 130 l 130 130 l 130 912 l 390 912 l 390 521 l 521 521 l 521 651 l 781 651 l 781 521 l 651 521 l 651 390 l 781 390 l 781 260 l 911 260 l 911 130 "},"<":{"x_min":129.78125,"x_max":911.65625,"ha":1042,"o":"m 911 130 l 521 130 l 521 260 l 391 260 l 391 390 l 260 390 l 260 520 l 129 520 l 129 651 l 260 651 l 260 781 l 391 781 l 391 911 l 521 911 l 521 1042 l 911 1042 l 911 911 l 651 911 l 651 781 l 520 781 l 520 651 l 391 651 l 391 520 l 520 520 l 520 390 l 651 390 l 651 260 l 911 260 l 911 130 "},"t":{"x_min":131,"x_max":911.4375,"ha":1042,"o":"m 911 130 l 521 130 l 521 260 l 391 260 l 391 650 l 131 650 l 131 781 l 391 781 l 391 912 l 651 912 l 651 781 l 911 781 l 911 650 l 651 650 l 651 260 l 911 260 l 911 130 "},"W":{"x_min":130,"x_max":1041.4375,"ha":1042,"o":"m 1041 130 l 781 130 l 781 260 l 651 260 l 651 390 l 521 390 l 521 260 l 390 260 l 390 130 l 130 130 l 130 1042 l 390 1042 l 390 520 l 521 520 l 521 650 l 651 650 l 651 520 l 781 520 l 781 1042 l 1041 1042 l 1041 130 "},"v":{"x_min":130,"x_max":911.4375,"ha":1042,"o":"m 911 390 l 781 390 l 781 260 l 651 260 l 651 130 l 390 130 l 390 260 l 260 260 l 260 390 l 130 390 l 130 781 l 390 781 l 390 390 l 651 390 l 651 781 l 911 781 l 911 390 "},">":{"x_min":130,"x_max":911.65625,"ha":1042,"o":"m 911 520 l 781 520 l 781 390 l 651 390 l 651 260 l 520 260 l 520 130 l 130 130 l 130 260 l 391 260 l 391 390 l 521 390 l 521 520 l 651 520 l 651 651 l 521 651 l 521 781 l 391 781 l 391 911 l 130 911 l 130 1042 l 520 1042 l 520 911 l 651 911 l 651 781 l 781 781 l 781 651 l 911 651 l 911 520 "},"s":{"x_min":130.21875,"x_max":911.53125,"ha":1042,"o":"m 911 259 l 781 259 l 781 130 l 130 130 l 130 260 l 651 260 l 651 390 l 260 390 l 260 521 l 130 521 l 130 651 l 260 651 l 260 781 l 911 781 l 911 650 l 390 650 l 390 521 l 781 521 l 781 390 l 911 390 l 911 259 "},"B":{"x_min":130,"x_max":911.4375,"ha":1042,"o":"m 911 260 l 781 260 l 781 130 l 130 130 l 130 1042 l 781 1042 l 781 911 l 911 911 l 911 651 l 781 651 l 781 520 l 911 520 l 911 260 m 651 651 l 651 911 l 390 911 l 390 651 l 651 651 m 651 260 l 651 520 l 390 520 l 390 260 l 651 260 "},"?":{"x_min":130.5625,"x_max":911.4375,"ha":1042,"o":"m 911 651 l 781 651 l 781 521 l 651 521 l 651 390 l 391 390 l 391 521 l 521 521 l 521 651 l 651 651 l 651 911 l 391 911 l 391 781 l 130 781 l 130 912 l 260 912 l 260 1042 l 781 1042 l 781 912 l 911 912 l 911 651 m 651 130 l 391 130 l 391 260 l 651 260 l 651 130 "},"H":{"x_min":130,"x_max":911.4375,"ha":1042,"o":"m 911 130 l 651 130 l 651 521 l 390 521 l 390 130 l 130 130 l 130 1042 l 390 1042 l 390 651 l 651 651 l 651 1042 l 911 1042 l 911 130 "},"c":{"x_min":130,"x_max":781.09375,"ha":1042,"o":"m 781 130 l 260 130 l 260 260 l 130 260 l 130 650 l 260 650 l 260 781 l 781 781 l 781 650 l 390 650 l 390 260 l 781 260 l 781 130 "},"&":{"x_min":130,"x_max":1041.4375,"ha":1042,"o":"m 1041 130 l 260 130 l 260 260 l 130 260 l 130 521 l 260 521 l 260 781 l 130 781 l 130 912 l 260 912 l 260 1042 l 781 1042 l 781 912 l 911 912 l 911 781 l 781 781 l 781 651 l 651 651 l 651 520 l 390 520 l 390 260 l 651 260 l 651 521 l 1041 521 l 1041 390 l 911 390 l 911 260 l 1041 260 l 1041 130 m 651 781 l 651 911 l 390 911 l 390 781 l 651 781 "},"I":{"x_min":261,"x_max":781.4375,"ha":1042,"o":"m 781 130 l 261 130 l 261 260 l 391 260 l 391 911 l 261 911 l 261 1042 l 781 1042 l 781 911 l 651 911 l 651 260 l 781 260 l 781 130 "},"G":{"x_min":130,"x_max":911.4375,"ha":1042,"o":"m 911 260 l 781 260 l 781 130 l 260 130 l 260 260 l 130 260 l 130 912 l 260 912 l 260 1042 l 781 1042 l 781 912 l 911 912 l 911 781 l 651 781 l 651 911 l 390 911 l 390 260 l 651 260 l 651 521 l 521 521 l 521 651 l 911 651 l 911 260 "},"(":{"x_min":260,"x_max":781.4375,"ha":1042,"o":"m 781 130 l 521 130 l 521 260 l 390 260 l 390 390 l 260 390 l 260 781 l 390 781 l 390 911 l 521 911 l 521 1042 l 781 1042 l 781 911 l 650 911 l 650 781 l 520 781 l 520 390 l 650 390 l 650 260 l 781 260 l 781 130 "},"`":{"x_min":14,"x_max":1039.03125,"ha":1042,"o":"m 1039 342 l 623 342 l 623 510 l 870 510 l 1039 342 m 624 122 q 453 90 543 90 q 141 217 269 90 q 14 529 14 344 q 141 839 14 711 q 453 968 269 968 q 624 936 543 968 l 624 551 l 624 716 q 532 738 594 730 l 453 741 q 304 678 366 741 q 241 529 241 616 q 301 377 241 439 q 369 334 331 350 q 453 317 407 317 l 548 320 q 624 342 583 320 l 624 122 m 623 716 l 1033 716 l 870 551 l 623 551 l 623 716 "},"U":{"x_min":130,"x_max":911.4375,"ha":1042,"o":"m 911 260 l 781 260 l 781 130 l 260 130 l 260 260 l 130 260 l 130 1042 l 390 1042 l 390 260 l 651 260 l 651 1042 l 911 1042 l 911 260 "},"F":{"x_min":130,"x_max":910.4375,"ha":1042,"o":"m 910 911 l 390 911 l 390 651 l 650 651 l 650 521 l 390 521 l 390 130 l 130 130 l 130 1042 l 910 1042 l 910 911 "},"r":{"x_min":130,"x_max":911.3125,"ha":1042,"o":"m 911 521 l 650 521 l 650 650 l 390 650 l 390 130 l 130 130 l 130 781 l 781 781 l 781 651 l 911 651 l 911 521 "},":":{"x_min":391,"x_max":651.4375,"ha":1042,"o":"m 651 650 l 391 650 l 391 781 l 651 781 l 651 650 m 651 260 l 391 260 l 391 390 l 651 390 l 651 260 "},"x":{"x_min":130,"x_max":911.4375,"ha":1042,"o":"m 911 130 l 651 130 l 651 260 l 390 260 l 390 130 l 130 130 l 130 260 l 260 260 l 260 390 l 390 390 l 390 520 l 260 520 l 260 650 l 130 650 l 130 781 l 390 781 l 390 650 l 651 650 l 651 781 l 911 781 l 911 650 l 781 650 l 781 520 l 651 520 l 651 390 l 781 390 l 781 260 l 911 260 l 911 130 "},"*":{"x_min":0,"x_max":1041.4375,"ha":1042,"o":"m 1041 521 l 781 521 l 781 390 l 911 390 l 911 260 l 651 260 l 651 390 l 390 390 l 390 260 l 130 260 l 130 390 l 260 390 l 260 521 l 0 521 l 0 651 l 260 651 l 260 781 l 130 781 l 130 912 l 390 912 l 390 781 l 651 781 l 651 912 l 911 912 l 911 781 l 781 781 l 781 651 l 1041 651 l 1041 521 "},"V":{"x_min":130,"x_max":911.4375,"ha":1042,"o":"m 911 390 l 781 390 l 781 260 l 651 260 l 651 130 l 390 130 l 390 260 l 260 260 l 260 390 l 130 390 l 130 1042 l 390 1042 l 390 390 l 651 390 l 651 1042 l 911 1042 l 911 390 "},"h":{"x_min":130,"x_max":911.4375,"ha":1042,"o":"m 911 130 l 651 130 l 651 521 l 390 521 l 390 130 l 130 130 l 130 912 l 390 912 l 390 651 l 781 651 l 781 521 l 911 521 l 911 130 "},"0":{"x_min":130,"x_max":911.4375,"ha":1042,"o":"m 911 260 l 781 260 l 781 130 l 260 130 l 260 260 l 130 260 l 130 911 l 260 911 l 260 1042 l 781 1042 l 781 911 l 911 911 l 911 260 m 651 781 l 651 911 l 390 911 l 390 651 l 520 651 l 520 781 l 651 781 m 651 260 l 651 650 l 520 650 l 520 521 l 390 521 l 390 260 l 651 260 "},".":{"x_min":391,"x_max":651.4375,"ha":1042,"o":"m 651 130 l 391 130 l 391 390 l 651 390 l 651 130 "},"@":{"x_min":130,"x_max":911.65625,"ha":1042,"o":"m 911 260 l 781 260 l 781 130 l 260 130 l 260 260 l 130 260 l 130 911 l 260 911 l 260 1042 l 781 1042 l 781 911 l 911 911 l 911 521 l 521 521 l 521 781 l 651 781 l 651 911 l 390 911 l 390 260 l 781 260 l 781 391 l 911 391 l 911 260 "},"f":{"x_min":261,"x_max":911.4375,"ha":1042,"o":"m 911 521 l 651 521 l 651 130 l 391 130 l 391 521 l 261 521 l 261 651 l 391 651 l 391 781 l 521 781 l 521 912 l 911 912 l 911 781 l 651 781 l 651 651 l 911 651 l 911 521 "},";":{"x_min":260.78125,"x_max":651.4375,"ha":1042,"o":"m 651 650 l 391 650 l 391 781 l 651 781 l 651 650 m 651 130 l 521 130 l 521 0 l 260 0 l 260 130 l 391 130 l 391 390 l 651 390 l 651 130 "},"i":{"x_min":261,"x_max":781.4375,"ha":1042,"o":"m 651 781 l 391 781 l 391 912 l 651 912 l 651 781 m 781 130 l 261 130 l 261 260 l 391 260 l 391 521 l 261 521 l 261 651 l 651 651 l 651 260 l 781 260 l 781 130 "},"6":{"x_min":130,"x_max":911.4375,"ha":1042,"o":"m 911 260 l 781 260 l 781 130 l 260 130 l 260 260 l 130 260 l 130 912 l 260 912 l 260 1042 l 781 1042 l 781 912 l 911 912 l 911 781 l 651 781 l 651 911 l 390 911 l 390 651 l 781 651 l 781 521 l 911 521 l 911 260 m 651 260 l 651 521 l 390 521 l 390 260 l 651 260 "},"A":{"x_min":130,"x_max":911.4375,"ha":1042,"o":"m 911 136 l 651 136 l 651 521 l 390 521 l 390 136 l 130 136 l 130 781 l 260 781 l 260 911 l 390 911 l 390 1042 l 651 1042 l 651 911 l 779 911 l 779 781 l 911 781 l 911 136 m 651 651 l 651 781 l 390 781 l 390 651 l 651 651 "},"n":{"x_min":130,"x_max":911.4375,"ha":1042,"o":"m 911 130 l 651 130 l 651 650 l 390 650 l 390 130 l 130 130 l 130 781 l 781 781 l 781 650 l 911 650 l 911 130 "},"O":{"x_min":130,"x_max":911.4375,"ha":1042,"o":"m 911 260 l 781 260 l 781 130 l 260 130 l 260 260 l 130 260 l 130 911 l 260 911 l 260 1042 l 781 1042 l 781 911 l 911 911 l 911 260 m 651 260 l 651 911 l 390 911 l 390 260 l 651 260 "},"3":{"x_min":130,"x_max":911.4375,"ha":1042,"o":"m 911 260 l 781 260 l 781 130 l 260 130 l 260 260 l 130 260 l 130 391 l 390 391 l 390 260 l 651 260 l 651 520 l 390 520 l 390 651 l 651 651 l 651 911 l 390 911 l 390 781 l 130 781 l 130 912 l 260 912 l 260 1042 l 781 1042 l 781 912 l 911 912 l 911 651 l 781 651 l 781 520 l 911 520 l 911 260 "},"]":{"x_min":261,"x_max":781.4375,"ha":1042,"o":"m 781 130 l 261 130 l 261 260 l 521 260 l 521 911 l 261 911 l 261 1042 l 781 1042 l 781 130 "},"m":{"x_min":130,"x_max":1041.4375,"ha":1042,"o":"m 1041 130 l 781 130 l 781 390 l 651 390 l 651 260 l 521 260 l 521 390 l 390 390 l 390 130 l 130 130 l 130 781 l 390 781 l 390 650 l 651 650 l 651 781 l 911 781 l 911 650 l 1041 650 l 1041 130 "},"9":{"x_min":130,"x_max":911.4375,"ha":1042,"o":"m 911 260 l 781 260 l 781 130 l 260 130 l 260 260 l 130 260 l 130 391 l 390 391 l 390 260 l 651 260 l 651 520 l 260 520 l 260 651 l 130 651 l 130 911 l 260 911 l 260 1042 l 781 1042 l 781 911 l 911 911 l 911 260 m 651 651 l 651 911 l 390 911 l 390 651 l 651 651 "},"l":{"x_min":261,"x_max":781.4375,"ha":1042,"o":"m 781 130 l 261 130 l 261 260 l 391 260 l 391 781 l 261 781 l 261 912 l 651 912 l 651 260 l 781 260 l 781 130 "},"8":{"x_min":130,"x_max":911.4375,"ha":1042,"o":"m 911 260 l 780 260 l 780 130 l 260 130 l 260 260 l 130 260 l 130 521 l 260 521 l 260 651 l 130 651 l 130 912 l 260 912 l 260 1042 l 780 1042 l 780 912 l 911 912 l 911 651 l 780 651 l 780 521 l 911 521 l 911 260 m 651 651 l 651 911 l 390 911 l 390 651 l 651 651 m 651 260 l 651 520 l 390 520 l 390 260 l 651 260 "},"p":{"x_min":130,"x_max":911.4375,"ha":1042,"o":"m 911 390 l 781 390 l 781 260 l 390 260 l 390 0 l 130 0 l 130 781 l 781 781 l 781 650 l 911 650 l 911 390 m 651 390 l 651 650 l 390 650 l 390 390 l 651 390 "},"4":{"x_min":131,"x_max":1041.4375,"ha":1042,"o":"m 1041 391 l 911 391 l 911 130 l 651 130 l 651 391 l 131 391 l 131 651 l 391 651 l 391 521 l 651 521 l 651 650 l 391 650 l 391 781 l 521 781 l 521 911 l 651 911 l 651 1042 l 911 1042 l 911 521 l 1041 521 l 1041 391 "},"R":{"x_min":130,"x_max":911.4375,"ha":1042,"o":"m 911 130 l 651 130 l 651 260 l 520 260 l 520 390 l 390 390 l 390 130 l 130 130 l 130 1042 l 781 1042 l 781 911 l 911 911 l 911 651 l 781 651 l 781 520 l 651 520 l 651 390 l 781 390 l 781 260 l 911 260 l 911 130 m 651 651 l 651 911 l 390 911 l 390 651 l 651 651 "},"o":{"x_min":130,"x_max":911.4375,"ha":1042,"o":"m 911 260 l 781 260 l 781 130 l 260 130 l 260 260 l 130 260 l 130 651 l 260 651 l 260 781 l 781 781 l 781 651 l 911 651 l 911 260 m 651 260 l 651 650 l 390 650 l 390 260 l 651 260 "},"5":{"x_min":130,"x_max":911.4375,"ha":1042,"o":"m 911 259 l 781 259 l 781 130 l 260 130 l 260 259 l 130 259 l 130 390 l 390 390 l 390 260 l 651 260 l 651 650 l 130 650 l 130 1042 l 911 1042 l 911 911 l 390 911 l 390 781 l 781 781 l 781 650 l 911 650 l 911 259 "}}}
